<svg width="50" height="50" viewBox="0 0 50 50" fill="none" xmlns="http://www.w3.org/2000/svg">
<path d="M34.1309 17.2363H31.8409C31.3428 17.2363 30.8692 17.4756 30.5762 17.8857L22.9004 28.5303L19.4238 23.7061C19.1309 23.3008 18.6621 23.0566 18.1592 23.0566H15.8691C15.5518 23.0566 15.3662 23.418 15.5518 23.6768L21.6358 32.1143C21.7795 32.3149 21.969 32.4783 22.1885 32.5911C22.408 32.7038 22.6512 32.7627 22.898 32.7627C23.1447 32.7627 23.388 32.7038 23.6075 32.5911C23.827 32.4783 24.0165 32.3149 24.1602 32.1143L34.4434 17.8564C34.6338 17.5977 34.4483 17.2363 34.1309 17.2363V17.2363Z" fill="#4CAF50"/>
<path d="M25 3.125C12.9199 3.125 3.125 12.9199 3.125 25C3.125 37.0801 12.9199 46.875 25 46.875C37.0801 46.875 46.875 37.0801 46.875 25C46.875 12.9199 37.0801 3.125 25 3.125ZM25 43.1641C14.9707 43.1641 6.83594 35.0293 6.83594 25C6.83594 14.9707 14.9707 6.83594 25 6.83594C35.0293 6.83594 43.1641 14.9707 43.1641 25C43.1641 35.0293 35.0293 43.1641 25 43.1641Z" fill="#4CAF50"/>
</svg>
