<?xml version="1.0" encoding="iso-8859-1"?>
<!-- Generator: Adobe Illustrator 19.0.0, SVG Export Plug-In . SVG Version: 6.00 Build 0)  -->
<svg version="1.1" id="Capa_1" xmlns="http://www.w3.org/2000/svg" xmlns:xlink="http://www.w3.org/1999/xlink" x="0px" y="0px"
	 viewBox="0 0 511.999 511.999" style="enable-background:new 0 0 511.999 511.999;" xml:space="preserve">
<rect x="10.734" y="447.714" style="fill:#5A6996;" width="491.28" height="53.921"/>
<path style="fill:#A5DC69;" d="M220.193,261.991L220.193,261.991c0,18.582-11.631,35.176-29.098,41.516l-37.444,13.589
	c-42.633,15.473-71.021,55.977-71.021,101.332v29.291H430.12v-29.291c0-45.355-28.388-85.858-71.022-101.332l-37.444-13.589
	c-17.467-6.34-29.098-22.934-29.098-41.516l0,0"/>
<path style="fill:#5A6996;" d="M173.67,209.175h-30.441v-96.983c0-56.241,45.592-101.832,101.832-101.832h22.63
	c56.241,0,101.832,45.592,101.832,101.832v96.983h-30.105H173.67z"/>
<g>
	<path style="fill:#7D9BFF;" d="M369.521,209.175h9.699c23.21,0,42.025-18.815,42.025-42.025l0,0
		c0-23.21-18.815-42.025-42.025-42.025h-9.699v35.943V209.175z"/>
	<path style="fill:#7D9BFF;" d="M143.227,209.175h-9.699c-23.21,0-42.025-18.815-42.025-42.025l0,0
		c0-23.21,18.815-42.025,42.025-42.025h9.699v35.943V209.175z"/>
</g>
<path style="fill:#FFE6C3;" d="M261.884,268.981h-11.019c-41.592,0-75.31-33.718-75.31-75.31v-75.674
	c0-41.592,33.718-75.31,75.31-75.31h11.019c41.592,0,75.31,33.718,75.31,75.31v75.674
	C337.193,235.263,303.477,268.981,261.884,268.981z"/>
<g>
	<path style="fill:#FFCDAC;" d="M261.884,268.981h-11.019c-41.592,0-75.31-33.718-75.31-75.31v-75.674
		c0-41.592,33.718-75.31,75.31-75.31h11.019c41.592,0,75.31,33.718,75.31,75.31v75.674
		C337.193,235.263,303.477,268.981,261.884,268.981z"/>
	<path style="fill:#FFCDAC;" d="M196.231,308.615c33.216,33.216,87.071,33.216,120.288,0l3.463-5.755
		c-16.533-6.767-27.426-22.887-27.426-40.869h-72.362c0,18.018-10.936,34.166-27.524,40.909L196.231,308.615z"/>
</g>
<path style="fill:#A0826E;" d="M264.456,42.688h-16.164c-40.171,0-72.737,32.565-72.737,72.737v40.219h22.184
	c28.13,0,55.477-7.544,79.355-21.495l-0.004,0.08c13.285,13.285,31.302,20.748,50.09,20.748h10.014v-39.552
	C337.193,75.253,304.628,42.688,264.456,42.688z"/>
<path style="fill:#8CA5DC;" d="M356.228,411.772H156.521c-9.926,0-17.974,8.047-17.974,17.974l0,0
	c0,9.926,8.047,17.974,17.974,17.974h199.707c9.926,0,17.974-8.047,17.974-17.974l0,0
	C374.202,419.819,366.155,411.772,356.228,411.772z"/>
<g>
	
		<ellipse transform="matrix(-0.7071 -0.7071 0.7071 -0.7071 -175.6346 547.942)" style="fill:#4BB9F5;" cx="25.665" cy="310.346" rx="14.856" ry="16.507"/>
	
		<ellipse transform="matrix(-0.7071 -0.7071 0.7071 -0.7071 -57.4315 565.491)" style="fill:#4BB9F5;" cx="88.401" cy="294.64" rx="14.856" ry="16.507"/>
</g>
<path style="fill:#AAE6FF;" d="M502.015,68.578c0-15.787-38.312-26.339-38.312-26.339V10.36c0,0,38.312,10.553,38.312,26.339V68.578
	z"/>
<ellipse transform="matrix(-0.7071 -0.7071 0.7071 -0.7071 692.1436 480.0015)" style="fill:#4BB9F5;" cx="445.483" cy="96.653" rx="17.262" ry="19.182"/>
<path d="M334.812,49.5c1.967,2.105,4.63,3.17,7.3,3.17c2.441,0,4.889-0.891,6.813-2.687c4.03-3.763,4.247-10.082,0.483-14.113
	c-0.437-0.468-0.88-0.934-1.326-1.394c-3.832-3.967-10.153-4.072-14.119-0.242c-3.965,3.832-4.074,10.154-0.242,14.12
	C334.089,48.733,334.452,49.113,334.812,49.5z"/>
<path d="M502.015,437.734h-61.909v-19.306c0-49.379-31.185-93.872-77.601-110.718l-39.087-14.186
	c-10.996-3.99-18.806-13.75-20.517-25.094c19.094-10.518,33.753-28.132,40.386-49.27h35.933c28.679,0,52.011-23.332,52.011-52.012
	c0-28.582-23.177-51.847-51.724-52.004v-2.954c0-16.457-3.496-32.315-10.391-47.131c-2.328-4.999-8.268-7.165-13.267-4.84
	c-5,2.327-7.167,8.266-4.84,13.267c5.658,12.157,8.527,25.179,8.527,38.704v86.998h-12.555c0.118-1.826,0.198-3.663,0.198-5.518
	v-75.673c0-47.032-38.263-85.295-85.295-85.295h-11.019c-47.032,0-85.295,38.263-85.295,85.295v75.674
	c0,1.855,0.081,3.692,0.198,5.518h-12.555v-86.998c0-50.645,41.203-91.846,91.846-91.846h22.629c13.924,0,27.293,3.034,39.739,9.015
	c4.971,2.39,10.937,0.297,13.325-4.674c2.389-4.971,0.297-10.936-4.674-13.325c-15.166-7.29-31.448-10.987-48.39-10.987h-22.629
	c-61.657,0-111.817,50.161-111.817,111.817v2.954c-28.547,0.156-51.724,23.421-51.724,52.004c0,28.68,23.332,52.012,52.011,52.012
	h35.933c6.633,21.138,21.291,38.751,40.386,49.27c-1.71,11.344-9.522,21.104-20.517,25.094l-39.087,14.186
	c-46.415,16.845-77.601,61.339-77.601,110.718v19.306H10.733c-5.515,0-9.985,4.471-9.985,9.985v53.921
	c0,5.514,4.47,9.985,9.985,9.985h491.28c5.515,0,9.985-4.471,9.985-9.985v-53.921C512,442.204,507.53,437.734,502.015,437.734z
	 M411.26,167.148c0,17.572-14.218,31.885-31.753,32.04v-64.079C397.042,135.265,411.26,149.578,411.26,167.148z M101.488,167.148
	c0-17.571,14.218-31.884,31.753-32.039v64.079C115.707,199.034,101.488,184.72,101.488,167.148z M250.865,52.673h11.019
	c36.02,0,65.324,29.305,65.324,65.324v26.993h-0.029c-11.948,0-23.363-3.431-33.14-9.808c7.772-5.493,15.132-11.688,21.999-18.555
	c3.899-3.899,3.9-10.222,0-14.122c-3.9-3.897-10.222-3.898-14.121,0c-27.828,27.826-64.825,43.152-104.178,43.152h-12.198v-27.66
	C185.54,81.977,214.844,52.673,250.865,52.673z M185.54,193.671v-28.043h12.198c27.616,0,54.207-6.654,77.954-19.19
	c14.457,11.99,32.468,18.523,51.488,18.523h0.029v28.71c0,36.019-29.304,65.324-65.324,65.324h-11.019
	C214.844,258.996,185.54,229.691,185.54,193.671z M250.865,278.966h11.019c7.674,0,15.106-1.035,22.185-2.944
	c2.989,12.123,10.306,22.812,20.497,29.988c-27.787,23.305-68.596,23.305-96.383,0c10.191-7.176,17.508-17.865,20.497-29.988
	C235.759,277.931,243.192,278.966,250.865,278.966z M92.614,418.428c0-41.006,25.898-77.956,64.444-91.944l31.536-11.445
	c0.184,0.218,0.371,0.433,0.577,0.638c18.528,18.528,42.866,27.792,67.205,27.792c24.338,0,48.677-9.264,67.205-27.792
	c0.205-0.205,0.393-0.42,0.577-0.638l31.536,11.445c38.546,13.989,64.444,50.938,64.444,91.944v19.306H383.02
	c0.757-2.533,1.169-5.212,1.169-7.988c0-15.416-12.543-27.959-27.959-27.959h-64.905c-5.515,0-9.985,4.471-9.985,9.985
	c0,5.514,4.47,9.985,9.985,9.985h64.905c4.405,0,7.988,3.584,7.988,7.988s-3.584,7.988-7.988,7.988H156.523
	c-4.405,0-7.988-3.584-7.988-7.988s3.584-7.988,7.988-7.988h53.921c5.515,0,9.985-4.471,9.985-9.985c0-5.514-4.47-9.985-9.985-9.985
	h-53.921c-15.416,0-27.959,12.543-27.959,27.959c0,2.776,0.412,5.455,1.169,7.988H92.614V418.428z M492.029,491.655H20.72v-33.95
	h471.31V491.655z"/>
<path d="M256.324,421.757c2.626,0,5.202-1.068,7.06-2.927c1.857-1.856,2.926-4.432,2.926-7.059s-1.068-5.202-2.926-7.06
	s-4.434-2.926-7.06-2.926s-5.202,1.067-7.06,2.926c-1.857,1.858-2.926,4.434-2.926,7.06s1.068,5.202,2.926,7.059
	C251.121,420.689,253.698,421.757,256.324,421.757z"/>
<path d="M24.011,336.013c6.84,0,13.84-2.72,19.223-8.102c5.078-5.078,7.781-11.595,8.07-18.06c0.004-0.043,0.003-0.087,0.007-0.13
	c0.003-0.075,0.009-0.151,0.011-0.227c0.015-0.223,0.034-0.444,0.034-0.671v-51.91l42.754-11.443V269.3
	c-8.043-1.304-16.824,1.322-23.28,7.78c-4.865,4.865-7.737,11.21-8.087,17.866c-0.365,6.951,2.157,13.668,6.92,18.431
	c4.638,4.639,10.789,6.936,17.076,6.936c6.84,0,13.84-2.72,19.223-8.102c4.909-4.909,7.598-11.163,8.034-17.414
	c0.051-0.406,0.085-0.819,0.085-1.239v-61.097c0-3.103-1.443-6.031-3.905-7.921c-2.462-1.89-5.662-2.523-8.661-1.725l-62.725,16.788
	c-4.367,1.169-7.404,5.125-7.404,9.646v35.754c-8.044-1.304-16.827,1.321-23.284,7.777c-10.328,10.331-10.851,26.614-1.166,36.3
	C11.573,333.716,17.725,336.013,24.011,336.013z M83.785,299.255c-0.998-0.997-1.147-2.324-1.098-3.26
	c0.089-1.697,0.916-3.444,2.266-4.795c1.491-1.491,3.405-2.283,5.103-2.283c1.148,0,2.199,0.361,2.953,1.114
	c0.689,0.689,1.045,1.628,1.102,2.662v0.191c0.033,1.724-0.749,3.683-2.269,5.204C89.342,300.588,85.654,301.123,83.785,299.255z
	 M22.224,306.901c1.491-1.491,3.405-2.283,5.104-2.283c1.148,0,2.199,0.362,2.952,1.114c0.695,0.695,1.054,1.644,1.106,2.688v0.09
	c0.057,1.741-0.731,3.737-2.273,5.279c-2.499,2.499-6.189,3.035-8.056,1.168C19.19,313.09,19.724,309.4,22.224,306.901z"/>
<path d="M41.372,79.595H55.62l-6.273,22.23c-1.498,5.307,1.591,10.824,6.898,12.322c0.907,0.257,1.819,0.378,2.717,0.378
	c4.358-0.001,8.363-2.876,9.605-7.276l9.856-34.928c0.85-3.011,0.24-6.245-1.648-8.738c-1.887-2.493-4.834-3.959-7.962-3.959H55.365
	l6.898-20.056c1.793-5.214-0.98-10.896-6.195-12.689c-5.217-1.796-10.897,0.98-12.69,6.195L31.928,66.363
	c-1.049,3.051-0.56,6.421,1.314,9.048C35.118,78.036,38.144,79.595,41.372,79.595z"/>
<path d="M464.679,227.092c-5.217-1.796-10.897,0.98-12.69,6.195l-11.449,33.289c-1.049,3.052-0.56,6.422,1.314,9.048
	s4.902,4.185,8.128,4.185h14.248l-6.272,22.229c-1.498,5.307,1.591,10.824,6.898,12.322c0.907,0.257,1.819,0.378,2.717,0.378
	c4.358-0.001,8.363-2.876,9.605-7.276l9.856-34.927c0.85-3.011,0.24-6.244-1.648-8.738c-1.887-2.493-4.834-3.959-7.962-3.959
	h-13.447l6.898-20.057C472.668,234.566,469.894,228.886,464.679,227.092z"/>
<path d="M487.189,8.612c-10.272-4.945-20.409-7.762-20.835-7.879c-3.005-0.828-6.223-0.204-8.703,1.684
	c-2.12,1.616-3.483,4-3.835,6.605c-0.067,0.163-0.099,0.575-0.099,1.338v31.878v26.927c-9.326-2.186-19.872,0.593-27.493,8.213
	c-11.371,11.372-11.979,29.267-1.356,39.89c5.076,5.075,11.808,7.587,18.698,7.587c7.532,0,15.253-3.005,21.192-8.943
	c6.116-6.116,9.114-14.119,8.93-21.864V56.324c1.433,0.596,2.906,1.242,4.381,1.941c11.153,5.29,13.843,9.476,13.961,10.325
	c0.006,5.509,4.474,9.972,9.985,9.972c5.515,0,9.985-4.471,9.985-9.985V36.699C512,25.988,503.652,16.539,487.189,8.612z
	 M450.637,101.789c-3.524,3.524-8.857,4.147-11.647,1.356c-2.789-2.789-2.168-8.123,1.356-11.647
	c2.037-2.037,4.677-3.103,7.082-3.103c1.756,0,3.388,0.569,4.564,1.746c1.043,1.043,1.609,2.442,1.724,3.97v0.312
	c0,0.118,0.014,0.232,0.018,0.348C453.717,97.159,452.656,99.77,450.637,101.789z M492.029,42.993
	c-1.526-0.85-3.14-1.686-4.839-2.503c-4.871-2.346-9.713-4.212-13.502-5.539V24.443c1.432,0.596,2.907,1.244,4.381,1.943
	c11.183,5.304,13.857,9.498,13.961,10.312L492.029,42.993L492.029,42.993z"/>
<path d="M288.368,199.281c1.794,0,3.612-0.483,5.249-1.498l0.561-0.346c4.701-2.883,6.176-9.031,3.293-13.733
	c-2.883-4.701-9.032-6.175-13.732-3.293l-0.64,0.395c-4.688,2.904-6.134,9.059-3.229,13.748
	C281.76,197.604,285.026,199.281,288.368,199.281z"/>
<path d="M219.919,180.417l-0.63,0.389c-4.688,2.904-6.134,9.059-3.229,13.748c1.89,3.051,5.155,4.727,8.498,4.727
	c1.794,0,3.612-0.483,5.249-1.498l0.569-0.352c4.698-2.888,6.166-9.038,3.278-13.736
	C230.767,178.997,224.615,177.53,219.919,180.417z"/>
<g>
</g>
<g>
</g>
<g>
</g>
<g>
</g>
<g>
</g>
<g>
</g>
<g>
</g>
<g>
</g>
<g>
</g>
<g>
</g>
<g>
</g>
<g>
</g>
<g>
</g>
<g>
</g>
<g>
</g>
</svg>
