<svg id="_x33_0" enable-background="new 0 0 64 64" height="512" viewBox="0 0 64 64" width="512" xmlns="http://www.w3.org/2000/svg"><g><g><g><path d="m62 26v19c0 2.76-2.24 5-5 5h-7v12h-22v-5.73c0-2.48-1.29-4.68-3.27-5.93.81-1.13 1.27-2.51 1.27-3.95v-4.39h6l2 5 5-3 5 3 2-5h10v-16z" fill="#4fc1e9"/></g><g><path d="m46 42-2 5-5-3 4-2z" fill="#3bafda"/></g><g><path d="m39 44-5 3-2-5h3z" fill="#3bafda"/></g><g><path d="m38 23.12c0 .05 0 .11.02.16h-.01l-3.11.89c-1.71.49-2.89 2.05-2.9 3.83h-1c-.8 0-1.53.32-2.06.82l-.5-1.5c-.29-.87-.44-1.79-.44-2.72 0-.9.14-1.78.4-2.6h9.92c-.2.33-.32.71-.32 1.12z" fill="#b27946"/></g><g><path d="m49.6 22c.26.82.4 1.7.4 2.6 0 .93-.15 1.85-.44 2.72l-.5 1.5c-.53-.5-1.26-.82-2.06-.82h-1v-.23c0-1.01-.75-1.86-1.75-1.99l-4.39-.55c-1.01-.12-1.78-.94-1.84-1.95-.02-.05-.02-.11-.02-.16 0-.41.12-.79.32-1.12z" fill="#b27946"/></g><g><path d="m55.85 22h-6.25-11.28-9.92-6.25-.15v-1c0-.83-.34-1.58-.88-2.12s-1.29-.88-2.12-.88c-1.66 0-3 1.34-3 3v-17c0-1.1.9-2 2-2h42c1.1 0 2 .9 2 2v17c0-.83-.34-1.58-.88-2.12s-1.29-.88-2.12-.88c-1.66 0-3 1.34-3 3v1z" fill="#e6e9ed"/></g><g><path d="m22.98 25.51-.98.49v.51c-2.49-1.58-3.27-1.9-6-2.46v-.01-3.04c0-1.66 1.34-3 3-3 .83 0 1.58.34 2.12.88s.88 1.29.88 2.12v1h.15c1.02 0 1.85.83 1.85 1.85 0 .71-.4 1.35-1.02 1.66z" fill="#f0d0b4"/></g><g><path d="m62 21v5h-6l-.98-.49c-.62-.31-1.02-.95-1.02-1.66 0-1.02.83-1.85 1.85-1.85h.15v-1c0-1.66 1.34-3 3-3 .83 0 1.58.34 2.12.88s.88 1.29.88 2.12z" fill="#f0d0b4"/></g><g><path d="m49.06 28.82c.58.55.94 1.32.94 2.18 0 .83-.34 1.58-.88 2.12s-1.29.88-2.12.88h-1.29c.19-.63.29-1.3.29-2v-4h1c.8 0 1.53.32 2.06.82z" fill="#f0d0b4"/></g><g><path d="m42.07 38.29.93 3.71-4 2-4-2 .93-3.71c.92.46 1.96.71 3.07.71s2.15-.25 3.07-.71z" fill="#f0d0b4"/></g><g><path d="m46 28v4c0 .7-.1 1.37-.29 2-.33 1.13-.95 2.14-1.76 2.95-.55.55-1.18 1-1.88 1.34-.92.46-1.96.71-3.07.71s-2.15-.25-3.07-.71c-1.74-.85-3.08-2.4-3.64-4.29-.19-.63-.29-1.3-.29-2v-3.98c0-.01 0-.01 0-.02.01-1.78 1.19-3.34 2.9-3.83l3.11-.89h.01c.06 1.01.83 1.83 1.84 1.95l4.39.55c1 .13 1.75.98 1.75 1.99z" fill="#f0d0b4"/></g><g><path d="m32.29 34h-1.29c-.83 0-1.58-.34-2.12-.88s-.88-1.29-.88-2.12c0-.86.36-1.63.94-2.18.53-.5 1.26-.82 2.06-.82h1v.02 3.98c0 .7.1 1.37.29 2z" fill="#f0d0b4"/></g><g><path d="m58 10.51v.18c0 .83-.38 1.61-1.02 2.13l-3.98 3.18-3.98-3.18c-.64-.52-1.02-1.3-1.02-2.13v-.18c0-.93.52-1.77 1.35-2.19.43-.21.9-.32 1.38-.32.81 0 1.59.32 2.17.9l.1.1.1-.1c.58-.58 1.36-.9 2.17-.9.48 0 .95.11 1.38.32.83.42 1.35 1.26 1.35 2.19z" fill="#ff826e"/></g><g><path d="m44 10.51v.18c0 .83-.38 1.61-1.02 2.13l-3.98 3.18-3.98-3.18c-.64-.52-1.02-1.3-1.02-2.13v-.18c0-.93.52-1.77 1.35-2.19.43-.21.9-.32 1.38-.32.81 0 1.59.32 2.17.9l.1.1.1-.1c.58-.58 1.36-.9 2.17-.9.48 0 .95.11 1.38.32.83.42 1.35 1.26 1.35 2.19z" fill="#ff826e"/></g><g><path d="m30 10.51v.18c0 .83-.38 1.61-1.02 2.13l-3.98 3.18-3.98-3.18c-.64-.52-1.02-1.3-1.02-2.13v-.18c0-.93.52-1.77 1.35-2.19.43-.21.9-.32 1.38-.32.81 0 1.59.32 2.17.9l.1.1.1-.1c.58-.58 1.36-.9 2.17-.9.48 0 .95.11 1.38.32.83.42 1.35 1.26 1.35 2.19z" fill="#ff826e"/></g><g><path d="m14 24.05c.33-.03.66-.05 1-.05l1 .05c2.73.56 3.51.88 6 2.46.27.22.53.46.78.71 1.99 1.99 3.22 4.74 3.22 7.78v7 4.39c0 1.44-.46 2.82-1.27 3.95-.87-.55-1.88-.91-2.96-1.03l-1.16-.13-1.61-.18-.93-3.71c2.33-1.13 3.93-3.52 3.93-6.29v-4.23c0-1.01-.75-1.86-1.75-1.99l-2.75-.34c-1.4-.17-2.55-1.06-3.12-2.26-.24-.52-.38-1.1-.38-1.71z" fill="#656d78"/></g><g><path d="m14 24.05v4.42c0 .61.14 1.19.38 1.71l-4.2 1.2c-1.29.37-2.18 1.54-2.18 2.88v4.74c0 1.94.78 3.68 2.05 4.95.55.55 1.18 1 1.88 1.34l-.93 3.71-1.61.18-1.16.13c-1.08.12-2.09.48-2.96 1.03-.81-1.13-1.27-2.51-1.27-3.95v-11.39c0-5.74 4.39-10.45 10-10.95z" fill="#656d78"/></g><g><path d="m14.62 52.76.38-.76.38.76c.38.76 1.16 1.24 2 1.24.97 0 1.83-.62 2.13-1.53l1.1-3.29 1.16.13c1.08.12 2.09.48 2.96 1.03 1.98 1.25 3.27 3.45 3.27 5.93v5.73h-5-16-5v-5.73c0-2.48 1.29-4.68 3.27-5.93.87-.55 1.88-.91 2.96-1.03l1.16-.13 1.1 3.29c.3.91 1.16 1.53 2.13 1.53.84 0 1.62-.48 2-1.24z" fill="#fcd770"/></g><g><path d="m20.61 49.18-1.1 3.29c-.3.91-1.16 1.53-2.13 1.53-.84 0-1.62-.48-2-1.24l-.38-.76 4-3z" fill="#ffc729"/></g><g><path d="m15 52-.38.76c-.38.76-1.16 1.24-2 1.24-.97 0-1.83-.62-2.13-1.53l-1.1-3.29 1.61-.18z" fill="#ffc729"/></g><g><path d="m18.07 45.29.93 3.71-4 3-4-3 .93-3.71c.92.46 1.96.71 3.07.71s2.15-.25 3.07-.71z" fill="#f0d0b4"/></g><g><path d="m8 39v-4.74c0-1.34.89-2.51 2.18-2.88l4.2-1.2c.57 1.2 1.72 2.09 3.12 2.26l2.75.34c1 .13 1.75.98 1.75 1.99v4.23c0 2.77-1.6 5.16-3.93 6.29-.92.46-1.96.71-3.07.71s-2.15-.25-3.07-.71c-.7-.34-1.33-.79-1.88-1.34-1.27-1.27-2.05-3.01-2.05-4.95z" fill="#f0d0b4"/></g></g><g><circle cx="12" cy="37" r="1"/><circle cx="18" cy="37" r="1"/><path d="m12.895 39.553-1.789.895.105.211c.722 1.444 2.174 2.341 3.789 2.341s3.067-.897 3.789-2.342l.105-.211-1.789-.895-.105.212c-.381.762-1.147 1.236-2 1.236s-1.619-.474-2-1.236z"/><circle cx="36" cy="30" r="1"/><circle cx="42" cy="30" r="1"/><path d="m41 32.764c-.381.762-1.147 1.236-2 1.236s-1.619-.474-2-1.236l-.105-.211-1.789.895.105.211c.722 1.444 2.174 2.341 3.789 2.341s3.067-.897 3.789-2.342l.105-.211-1.789-.895z"/><path d="m60 1h-42c-1.654 0-3 1.346-3 3v19c-6.617 0-12 5.383-12 12v11.395c0 1.299.332 2.549.943 3.676-1.804 1.472-2.943 3.708-2.943 6.194v6.735h62v-2h-12v-10h6c3.309 0 6-2.691 6-6v-41c0-1.654-1.346-3-3-3zm-42 2h42c.551 0 1 .449 1 1v13.556c-.591-.344-1.268-.556-2-.556-2.206 0-4 1.794-4 4h-32c0-2.206-1.794-4-4-4-.732 0-1.409.212-2 .556v-13.556c0-.551.449-1 1-1zm36.578 23.407.422.211v14.382h-11.219l-.555-2.22c1.422-.89 2.547-2.209 3.185-3.78h.589c2.206 0 4-1.794 4-4 0-.901-.31-1.724-.815-2.393l.322-.966c.327-.981.493-2.003.493-3.037 0-.541-.054-1.076-.143-1.604h2.288c-.086.271-.145.555-.145.854 0 1.087.604 2.066 1.578 2.553zm-32.695 21.907-2.082-.231-.575-2.303c2.262-1.415 3.774-3.921 3.774-6.78v-4.234c0-1.51-1.13-2.79-2.628-2.977l-2.744-.343c-1.498-.187-2.628-1.467-2.628-2.977v-3.469c5.514 0 10 4.486 10 10v11.395c0 .922-.219 1.812-.635 2.619-.767-.356-1.599-.601-2.482-.7zm-4.503-14.884 2.744.343c.5.063.876.489.876.992v4.235c0 3.309-2.691 6-6 6s-6-2.691-6-6v-4.737c0-.888.596-1.679 1.451-1.923l3.465-.99c.788 1.115 2.024 1.9 3.464 2.08zm-2.38 13.57c.828 0 1.627-.127 2.379-.361l.49 1.96-2.869 2.151-2.869-2.152.49-1.96c.752.235 1.551.362 2.379.362zm-1.268 5.299-.008.015c-.211.423-.636.686-1.109.686-.535 0-1.008-.341-1.177-.849l-.699-2.097zm5.529-2.245-.699 2.097c-.169.508-.642.849-1.177.849-.473 0-.898-.263-1.109-.686l-.007-.015zm4.12-23.626.042-.021c.973-.487 1.577-1.466 1.577-2.553 0-.299-.059-.583-.145-.854h2.288c-.089.528-.143 1.063-.143 1.604 0 1.034.166 2.056.493 3.037l.322.966c-.505.669-.815 1.492-.815 2.393 0 2.206 1.794 4 4 4h.589c.638 1.571 1.763 2.89 3.185 3.78l-.555 2.22h-7.219v-6c0-3.357-1.39-6.392-3.619-8.572zm23.619 5.572v-3c1.103 0 2 .897 2 2s-.897 2-2 2h-.069c.041-.328.069-.661.069-1zm1.809-9c.113.526.191 1.06.191 1.604 0 .819-.131 1.628-.39 2.404l-.098.293c-.467-.191-.977-.301-1.512-.301h-.112c-.308-1.156-1.281-2.057-2.516-2.211l-4.387-.549c-.562-.07-.985-.55-.985-1.115 0-.042.013-.083.017-.125zm-6.974 18.464-2.835 1.418-2.835-1.418.456-1.825c.752.234 1.551.361 2.379.361s1.627-.127 2.379-.361zm-2.835-3.464c-3.309 0-6-2.691-6-6v-3.983c0-1.333.895-2.519 2.175-2.885l2.153-.615c.455.909 1.342 1.574 2.408 1.707l4.387.549c.5.063.876.489.876.992v4.235c.001 3.309-2.69 6-5.999 6zm-4.374-14.791c-1.8.515-3.131 2.006-3.508 3.791h-.118c-.535 0-1.045.11-1.512.301l-.098-.293c-.259-.776-.39-1.585-.39-2.404 0-.544.078-1.078.191-1.604h6.168zm-3.626 5.791v3c0 .339.028.672.069 1h-.069c-1.103 0-2-.897-2-2s.897-2 2-2zm3.764 14 2.16 1.08-2.431 1.459-1.016-2.539zm8.472 0h1.287l-1.015 2.539-2.431-1.459zm-26.236-22c0-1.103.897-2 2-2s2 .897 2 2v2h1.146c.471 0 .854.383.854.854 0 .326-.181.619-.472.764l-.844.422c-1.384-.932-2.975-1.571-4.684-1.859zm-12 25.395v-11.395c0-4.829 3.441-8.869 8-9.798v3.267c0 .353.037.698.107 1.032l-3.206.917c-1.708.486-2.901 2.068-2.901 3.845v4.737c0 2.859 1.512 5.365 3.774 6.78l-.575 2.303-2.082.231c-.883.098-1.715.344-2.482.699-.416-.806-.635-1.697-.635-2.618zm-2 9.87c0-3.062 2.294-5.625 5.337-5.963l.362-.04.841 2.523c.442 1.324 1.678 2.215 3.075 2.215.926 0 1.782-.386 2.385-1.044.603.658 1.459 1.044 2.385 1.044 1.397 0 2.633-.891 3.075-2.216l.841-2.523.362.04c3.043.339 5.337 2.903 5.337 5.964v4.735h-2.426c.277-.739.426-1.526.426-2.314 0-1.301-.381-2.561-1.103-3.643l-1.065-1.598-1.664 1.109 1.065 1.598c.502.753.767 1.629.767 2.534 0 .706-.167 1.412-.482 2.043l-.136.271h-14.764l-.136-.271c-.315-.631-.482-1.338-.482-2.043 0-.905.265-1.781.767-2.533l1.065-1.598-1.664-1.109-1.065 1.598c-.722 1.081-1.103 2.341-1.103 3.642 0 .788.149 1.575.426 2.314h-2.426zm54-7.265h-8v12h-20v-4.735c0-2.486-1.139-4.722-2.944-6.195.612-1.127.944-2.376.944-3.675v-3.395h4.323l2.185 5.461 5.492-3.295 5.492 3.295 2.185-5.461h10.323v-16h4v18c0 2.206-1.794 4-4 4zm4-24h-4.764l-.763-.381c-.292-.146-.473-.439-.473-.765 0-.471.383-.854.854-.854h1.146v-2c0-1.103.897-2 2-2s2 .897 2 2z"/><path d="m25 17.281 4.6-3.68c.89-.712 1.4-1.773 1.4-2.914v-.177c0-1.313-.729-2.493-1.904-3.08-1.299-.648-2.92-.532-4.096.262-1.176-.794-2.795-.91-4.097-.262-1.174.588-1.903 1.768-1.903 3.08v.177c0 1.14.51 2.202 1.4 2.913zm-4-6.771c0-.55.306-1.045.797-1.291.287-.143.609-.219.929-.219.554 0 1.076.216 1.467.607l.807.807.806-.806c.618-.619 1.614-.78 2.396-.389.492.246.798.741.798 1.291v.177c0 .529-.237 1.021-.649 1.352l-3.351 2.68-3.351-2.681c-.412-.329-.649-.822-.649-1.35z"/><path d="m39 17.281 4.6-3.68c.89-.712 1.4-1.773 1.4-2.914v-.177c0-1.313-.729-2.493-1.904-3.08-1.299-.648-2.92-.532-4.096.262-1.176-.794-2.794-.91-4.097-.262-1.174.588-1.903 1.768-1.903 3.08v.177c0 1.14.51 2.202 1.4 2.913zm-4-6.771c0-.55.306-1.045.797-1.291.287-.143.609-.219.929-.219.554 0 1.076.216 1.467.607l.807.807.806-.806c.618-.619 1.614-.78 2.396-.389.492.246.798.741.798 1.291v.177c0 .529-.237 1.021-.649 1.352l-3.351 2.68-3.351-2.681c-.412-.329-.649-.822-.649-1.35z"/><path d="m53 17.281 4.6-3.68c.89-.712 1.4-1.773 1.4-2.914v-.177c0-1.313-.729-2.493-1.904-3.08-1.3-.648-2.919-.532-4.096.262-1.176-.794-2.794-.91-4.097-.262-1.174.588-1.903 1.768-1.903 3.08v.177c0 1.14.51 2.202 1.4 2.913zm-4-6.771c0-.55.306-1.045.797-1.291.287-.143.609-.219.929-.219.554 0 1.076.216 1.467.607l.807.807.806-.806c.619-.619 1.614-.78 2.396-.389.492.246.798.741.798 1.291v.177c0 .529-.237 1.021-.649 1.352l-3.351 2.68-3.351-2.681c-.412-.329-.649-.822-.649-1.35z"/></g></g></svg>